<?xml version="1.0" encoding="UTF-8"?>
<svg width="762px" height="690px" viewBox="0 0 762 690" xmlns="http://www.w3.org/2000/svg" xmlns:xlink="http://www.w3.org/1999/xlink" version="1.1">
 <!-- Generated by Pixelmator Pro 2.0.5 -->
 <path id="Trazado" d="M508.535 242.548 L253.697 242.548 C244.588 242.538 237.207 235.156 237.197 226.048 L237.197 25.894 C237.204 19.221 242.611 13.814 249.284 13.806 L512.738 13.806 C519.526 13.813 525.027 19.315 525.035 26.103 L525.035 226.048 C525.025 235.156 517.644 242.537 508.536 242.548 Z" fill="#f2f2f2" fill-opacity="1" stroke="none"/>
 <path id="Trazado-1" d="M269.697 226.048 L492.535 226.048 C496.779 226.048 500.848 224.362 503.849 221.362 506.849 218.361 508.535 214.291 508.535 210.048 L508.535 56.5 C508.535 52.257 506.849 48.187 503.849 45.186 500.848 42.186 496.779 40.5 492.535 40.5 L269.697 40.5 C265.453 40.5 261.383 42.186 258.383 45.186 255.382 48.187 253.697 52.257 253.697 56.5 L253.697 210.048 C253.697 214.291 255.382 218.361 258.383 221.362 261.383 224.362 265.453 226.048 269.697 226.048 Z" fill="#ffffff" fill-opacity="1" stroke="none"/>
 <path id="Trazado-2" d="M524.805 24.95 L236.965 24.95 236.965 16.55 C236.978 7.411 244.386 0.008 253.525 0 L508.245 0 C517.384 0.008 524.792 7.411 524.805 16.55 Z" fill="#cccccc" fill-opacity="1" stroke="none"/>
 <path id="Trazado-3" d="M271.344 12.5 C271.344 14.866 269.426 16.783 267.06 16.783 264.695 16.783 262.777 14.866 262.777 12.5 262.777 10.134 264.695 8.217 267.06 8.217 269.426 8.217 271.344 10.134 271.344 12.5 Z" fill="#ffffff" fill-opacity="1" stroke="none"/>
 <path id="Trazado-4" d="M287.603 12.5 C287.603 14.866 285.685 16.783 283.319 16.783 280.953 16.783 279.036 14.866 279.036 12.5 279.036 10.134 280.953 8.217 283.319 8.217 285.685 8.217 287.603 10.134 287.603 12.5 Z" fill="#ffffff" fill-opacity="1" stroke="none"/>
 <path id="Trazado-5" d="M303.861 12.5 C303.861 14.866 301.944 16.783 299.578 16.783 297.212 16.783 295.295 14.866 295.295 12.5 295.295 10.134 297.212 8.217 299.578 8.217 301.944 8.217 303.861 10.134 303.861 12.5 Z" fill="#ffffff" fill-opacity="1" stroke="none"/>
 <path id="Trazado-6" d="M286.095 112.456 L275.059 112.456 C273.813 112.455 272.803 111.445 272.801 110.199 L272.802 99.163 C272.803 97.917 273.813 96.907 275.059 96.905 L286.095 96.905 C287.341 96.907 288.351 97.917 288.352 99.163 L288.352 110.199 C288.351 111.445 287.341 112.455 286.095 112.456 Z" fill="#6400ff" fill-opacity="1" stroke="none"/>
 <path id="Trazado-7" d="M286.095 141.049 L275.059 141.049 C273.813 141.048 272.803 140.038 272.802 138.792 L272.802 127.756 C272.803 126.51 273.813 125.5 275.059 125.499 L286.095 125.499 C287.341 125.5 288.351 126.51 288.352 127.756 L288.352 138.792 C288.351 140.038 287.341 141.048 286.095 141.049 Z" fill="#3f3d56" fill-opacity="1" stroke="none"/>
 <path id="Trazado-8" d="M286.095 169.643 L275.059 169.643 C273.813 169.641 272.803 168.631 272.802 167.385 L272.802 156.349 C272.803 155.103 273.813 154.093 275.059 154.092 L286.095 154.092 C287.341 154.093 288.351 155.103 288.352 156.349 L288.352 167.385 C288.351 168.631 287.341 169.641 286.095 169.643 Z" fill="#cccccc" fill-opacity="1" stroke="none"/>
 <path id="Trazado-9" d="M358.331 106.938 L305.157 106.938 C303.913 106.935 302.906 105.925 302.906 104.681 302.906 103.436 303.913 102.427 305.157 102.423 L358.331 102.423 C359.138 102.421 359.886 102.851 360.29 103.55 360.695 104.25 360.695 105.112 360.29 105.811 359.886 106.51 359.138 106.94 358.331 106.938 Z" fill="#cccccc" fill-opacity="1" stroke="none"/>
 <path id="Trazado-10" d="M358.331 135.531 L305.157 135.531 C303.913 135.528 302.906 134.518 302.906 133.274 302.906 132.029 303.913 131.02 305.157 131.017 L358.331 131.017 C359.577 131.017 360.588 132.027 360.588 133.274 360.588 134.521 359.577 135.531 358.331 135.531 Z" fill="#cccccc" fill-opacity="1" stroke="none"/>
 <path id="Trazado-11" d="M358.331 164.125 L305.157 164.125 C303.91 164.125 302.9 163.114 302.9 161.867 302.9 160.621 303.91 159.61 305.157 159.61 L358.331 159.61 C359.577 159.61 360.588 160.621 360.588 161.867 360.588 163.114 359.577 164.125 358.331 164.125 Z" fill="#cccccc" fill-opacity="1" stroke="none"/>
 <path id="Trazado-12" d="M489.341 133.991 C489.398 133.042 489.43 132.086 489.43 131.123 489.43 104.99 468.245 83.805 442.112 83.805 L442.112 133.991 Z" fill="#6400ff" fill-opacity="1" stroke="none"/>
 <path id="Trazado-13" d="M438.528 138.292 L438.528 88.107 C412.767 88.106 391.739 108.712 391.218 134.467 390.696 160.222 410.873 181.662 436.613 182.704 462.352 183.745 484.195 164.005 485.756 138.292 Z" fill="#3f3d56" fill-opacity="1" stroke="none"/>
 <path id="Trazado-14" d="M761 689.787 L1 689.787 C0.448 689.787 0 689.34 0 688.787 0 688.235 0.448 687.787 1 687.787 L761 687.787 C761.552 687.787 762 688.235 762 688.787 762 689.34 761.552 689.787 761 689.787 Z" fill="#ffffff" fill-opacity="1" stroke="none"/>
 <path id="Trazado-15" d="M504.69 412.926 C505.024 413.379 505.321 413.857 505.58 414.357 L555.693 419.992 562.981 410.145 579.28 419.202 564.933 443.121 503.537 427.008 C500.339 430.084 495.571 430.859 491.562 428.955 487.554 427.052 485.142 422.867 485.504 418.444 485.866 414.021 488.926 410.284 493.191 409.058 497.455 407.831 502.034 409.371 504.69 412.926 Z" fill="#ffb8b8" fill-opacity="1" stroke="none"/>
 <path id="Trazado-16" d="M248.987 399.988 C246.422 401.496 243.32 401.79 240.516 400.791 237.713 399.792 235.496 397.603 234.462 394.813 L198.735 395.557 208.633 379.845 241.042 381.547 C245.953 380.088 251.179 382.534 253.206 387.238 255.233 391.943 253.42 397.42 248.987 399.988 Z" fill="#ffb8b8" fill-opacity="1" stroke="none"/>
 <path id="Trazado-17" d="M233.285 395.49 C232.702 397.437 230.888 398.753 228.857 398.703 L163.47 397.043 104.263 379.513 C99.829 378.2 96.445 374.602 95.409 370.095 94.372 365.588 95.843 360.873 99.258 357.755 102.672 354.637 107.502 353.599 111.896 355.04 L165.386 372.579 229.587 378.774 C231.918 379.01 233.683 380.987 233.655 383.33 L233.469 394.281 C233.463 394.69 233.401 395.097 233.285 395.49 Z" fill="#3f3d56" fill-opacity="1" stroke="none"/>
 <path id="Trazado-18" d="M138.461 676.601 L150.72 676.6 156.553 629.312 138.459 629.313 Z" fill="#ffb8b8" fill-opacity="1" stroke="none"/>
 <path id="Trazado-19" d="M135.333 672.598 L159.477 672.597 159.478 672.597 C163.559 672.597 167.473 674.218 170.358 677.103 173.244 679.989 174.865 683.902 174.865 687.983 L174.865 688.483 135.334 688.485 Z" fill="#2f2e41" fill-opacity="1" stroke="none"/>
 <path id="Trazado-20" d="M102.461 676.601 L114.72 676.6 120.553 629.312 102.459 629.313 Z" fill="#ffb8b8" fill-opacity="1" stroke="none"/>
 <path id="Trazado-21" d="M99.333 672.598 L123.477 672.597 123.478 672.597 C127.559 672.597 131.473 674.218 134.358 677.103 137.244 679.989 138.865 683.902 138.865 687.983 L138.865 688.483 99.334 688.485 Z" fill="#2f2e41" fill-opacity="1" stroke="none"/>
 <path id="Trazado-22" d="M94.233 485.493 L97.16 659.187 C97.179 660.299 97.66 661.353 98.487 662.096 99.315 662.839 100.414 663.204 101.522 663.103 L115.868 661.799 C117.811 661.622 119.343 660.069 119.494 658.124 L127.893 549.779 C127.934 549.251 128.38 548.846 128.91 548.857 129.439 548.867 129.869 549.289 129.889 549.818 L134.087 660.644 C134.169 662.793 135.934 664.493 138.084 664.493 L153.47 664.493 C155.584 664.493 157.333 662.847 157.462 660.737 L168.233 484.493 104.233 468.493 Z" fill="#2f2e41" fill-opacity="1" stroke="none"/>
 <path id="Trazado-23" d="M165.215 297.835 C165.215 311.4 154.219 322.396 140.654 322.396 127.09 322.396 116.093 311.4 116.093 297.835 116.093 284.271 127.09 273.274 140.654 273.274 154.219 273.274 165.215 284.271 165.215 297.835 Z" fill="#ffb8b8" fill-opacity="1" stroke="none"/>
 <path id="Trazado-24" d="M167.292 491.932 C167.268 491.932 167.244 491.931 167.22 491.931 L109.789 491.047 C107.504 491.013 105.608 489.27 105.381 486.996 L104.731 480.493 C104.705 480.237 104.49 480.043 104.233 480.043 103.976 480.043 103.761 480.237 103.735 480.493 L103.064 487.21 C102.849 489.38 101.106 491.083 98.931 491.248 L94.873 491.56 C93.421 491.672 92.005 491.075 91.073 489.957 90.14 488.84 89.805 487.34 90.175 485.932 L93.669 472.608 C100.901 444.916 101.482 415.907 95.367 387.948 L93.63 380.048 C90.944 367.94 96.389 355.484 107.101 349.232 L118.381 342.62 123.499 334.943 C125.509 331.936 128.86 330.098 132.476 330.02 139.616 329.864 151.863 331.172 154.164 341.611 165.862 345.608 173.65 356.691 173.446 369.052 L171.789 487.495 C171.754 489.954 169.751 491.93 167.292 491.932 Z" fill="#3f3d56" fill-opacity="1" stroke="none"/>
 <path id="Trazado-25" d="M138.733 311.993 C138.632 315.465 136.222 317.473 133.262 319.292 130.303 321.111 126.844 321.899 123.455 322.66 122.529 323.152 121.414 323.124 120.513 322.588 119.613 322.051 119.058 321.083 119.049 320.035 L115.941 308.212 C114.841 304.435 114.041 300.578 113.548 296.675 112.799 289.166 114.579 281.088 119.82 275.659 125.061 270.229 134.151 268.301 140.432 272.484 147.885 262.964 181.955 283.997 173.551 290.617 172.056 291.794 169.77 290.304 167.872 290.16 165.975 290.015 163.848 290.349 162.642 291.822 161.067 293.746 161.753 296.612 161.104 299.013 160.562 300.719 159.361 302.137 157.768 302.954 156.175 303.77 154.322 303.917 152.621 303.361 151.052 302.588 149.576 301.639 148.221 300.533 146.765 299.563 144.926 298.847 143.287 299.458 141.127 300.264 140.36 302.909 140.165 305.206 139.836 307.497 139.357 309.764 138.733 311.993 Z" fill="#2f2e41" fill-opacity="1" stroke="none"/>
 <path id="Trazado-26" d="M144.469 377.819 L148.469 426.819 169.469 477.819 138.469 427.819 Z" fill="#000000" fill-opacity="1" stroke="none"/>
 <path id="Trazado-27" d="M402.819 646.146 L183.649 516.12 C175.82 511.464 173.238 501.349 177.877 493.51 L280.002 321.371 C283.413 315.635 290.823 313.744 296.566 317.142 L523.145 451.564 C528.98 455.034 530.904 462.573 527.447 468.415 L425.428 640.375 C420.772 648.203 410.658 650.785 402.819 646.146 Z" fill="#f2f2f2" fill-opacity="1" stroke="none"/>
 <path id="Trazado-28" d="M205.828 510.093 L397.477 623.792 C405.077 628.301 414.893 625.795 419.402 618.195 L497.747 486.138 C502.255 478.539 499.749 468.723 492.15 464.214 L300.5 350.515 C292.901 346.006 283.085 348.512 278.576 356.112 L200.231 488.169 C195.722 495.768 198.228 505.584 205.828 510.093 Z" fill="#ffffff" fill-opacity="1" stroke="none"/>
 <path id="Trazado-29" d="M527.837 467.306 L280.284 320.441 284.57 313.216 C289.244 305.363 299.393 302.776 307.257 307.432 L526.326 437.398 C534.181 442.068 536.775 452.215 532.124 460.081 Z" fill="#cccccc" fill-opacity="1" stroke="none"/>
 <path id="Trazado-30" d="M316.803 325.089 C316.803 327.454 314.885 329.372 312.52 329.372 310.154 329.372 308.236 327.454 308.236 325.089 308.236 322.723 310.154 320.805 312.52 320.805 314.885 320.805 316.803 322.723 316.803 325.089 Z" fill="#ffffff" fill-opacity="1" stroke="none"/>
 <path id="Trazado-31" d="M330.786 333.384 C330.786 335.75 328.869 337.668 326.503 337.668 324.137 337.668 322.219 335.75 322.219 333.384 322.219 331.019 324.137 329.101 326.503 329.101 328.869 329.101 330.786 331.019 330.786 333.384 Z" fill="#ffffff" fill-opacity="1" stroke="none"/>
 <path id="Trazado-32" d="M344.769 341.68 C344.769 344.046 342.852 345.964 340.486 345.964 338.12 345.964 336.203 344.046 336.203 341.68 336.203 339.315 338.12 337.397 340.486 337.397 342.852 337.397 344.769 339.315 344.769 341.68 Z" fill="#ffffff" fill-opacity="1" stroke="none"/>
 <path id="Trazado-33" d="M472.478 492.846 L472.757 492.376 475.574 494.048 475.296 494.518 Z" fill="#e6e6e6" fill-opacity="1" stroke="none"/>
 <path id="Trazado-34" d="M466.786 489.469 L461.094 486.092 461.372 485.622 467.065 488.999 Z M455.402 482.715 L449.709 479.338 449.988 478.868 455.68 482.245 Z M444.017 475.961 L438.325 472.584 438.604 472.114 444.296 475.491 Z M432.633 469.207 L426.941 465.83 427.219 465.36 432.911 468.737 Z M421.248 462.453 L415.556 459.076 415.835 458.606 421.527 461.983 Z M409.864 455.699 L404.172 452.322 404.45 451.852 410.143 455.229 Z M398.479 448.945 L392.787 445.568 393.066 445.098 398.758 448.475 Z M387.095 442.191 L381.403 438.814 381.681 438.344 387.374 441.721 Z M375.711 435.437 L370.018 432.06 370.297 431.59 375.989 434.967 Z M364.326 428.683 L358.634 425.306 358.913 424.836 364.605 428.213 Z M352.942 421.929 L347.25 418.552 347.528 418.082 353.22 421.459 Z M341.557 415.175 L335.865 411.798 336.144 411.328 341.836 414.705 Z M330.173 408.421 L324.481 405.044 324.759 404.574 330.452 407.951 Z M318.788 401.667 L313.096 398.29 313.375 397.82 319.067 401.197 Z M307.404 394.913 L301.712 391.536 301.99 391.066 307.683 394.443 Z M296.02 388.159 L290.327 384.782 290.606 384.312 296.298 387.689 Z" fill="#e6e6e6" fill-opacity="1" stroke="none"/>
 <path id="Trazado-35" d="M281.818 379.733 L282.096 379.264 284.914 380.935 284.635 381.405 Z" fill="#e6e6e6" fill-opacity="1" stroke="none"/>
 <path id="Trazado-36" d="M354.055 481.635 L354.334 481.165 357.152 482.837 356.873 483.306 Z" fill="#e6e6e6" fill-opacity="1" stroke="none"/>
 <path id="Trazado-37" d="M348.448 478.308 L342.84 474.981 343.119 474.511 348.726 477.838 Z M337.232 471.654 L331.625 468.327 331.903 467.858 337.511 471.185 Z M326.017 465 L320.409 461.674 320.688 461.204 326.296 464.531 Z M314.802 458.347 L309.194 455.02 309.473 454.55 315.08 457.877 Z M303.586 451.693 L297.979 448.366 298.257 447.897 303.865 451.223 Z M292.371 445.039 L286.763 441.712 287.042 441.243 292.65 444.57 Z M281.156 438.386 L275.548 435.059 275.827 434.589 281.434 437.916 Z M269.94 431.732 L264.333 428.405 264.611 427.935 270.219 431.262 Z" fill="#e6e6e6" fill-opacity="1" stroke="none"/>
 <path id="Trazado-38" d="M255.907 423.407 L256.186 422.937 259.004 424.609 258.725 425.078 Z" fill="#e6e6e6" fill-opacity="1" stroke="none"/>
 <path id="Trazado-39" d="M286.853 469.701 L287.131 469.231 289.949 470.903 289.671 471.373 Z" fill="#e6e6e6" fill-opacity="1" stroke="none"/>
 <path id="Trazado-40" d="M281.083 466.278 L275.314 462.855 275.593 462.386 281.362 465.808 Z M269.544 459.432 L263.775 456.01 264.054 455.54 269.823 458.963 Z M258.006 452.587 L252.236 449.164 252.515 448.694 258.284 452.117 Z" fill="#e6e6e6" fill-opacity="1" stroke="none"/>
 <path id="Trazado-41" d="M243.649 444.069 L243.928 443.6 246.745 445.271 246.467 445.741 Z" fill="#e6e6e6" fill-opacity="1" stroke="none"/>
 <path id="Trazado-42" d="M265.933 504.962 L266.212 504.493 269.03 506.164 268.751 506.634 Z" fill="#e6e6e6" fill-opacity="1" stroke="none"/>
 <path id="Trazado-43" d="M260.164 501.54 L254.394 498.117 254.673 497.647 260.443 501.07 Z M248.625 494.694 L242.855 491.271 243.134 490.802 248.904 494.224 Z M237.086 487.848 L231.317 484.425 231.595 483.956 237.365 487.379 Z" fill="#e6e6e6" fill-opacity="1" stroke="none"/>
 <path id="Trazado-44" d="M222.729 479.331 L223.008 478.861 225.826 480.533 225.547 481.003 Z" fill="#e6e6e6" fill-opacity="1" stroke="none"/>
 <path id="Trazado-45" d="M238.402 489.116 L400.811 585.468 C409.005 590.317 419.576 587.618 424.443 579.436 L471.896 499.449 471.57 499.268 363.905 526.749 355.376 493.356 C355.06 492.104 354.177 491.073 352.989 490.569 352.092 490.208 351.102 490.152 350.171 490.411 L293.749 504.81 287.513 480.395 C287.241 479.331 286.558 478.418 285.614 477.858 284.669 477.297 283.54 477.135 282.476 477.407 282.095 477.508 245.381 487.236 238.402 489.116 Z" fill="#6400ff" fill-opacity="1" stroke="none"/>
 <path id="Trazado-46" d="M237.431 489.174 L237.296 488.645 282.445 477.119 C284.928 476.488 287.454 477.987 288.09 480.468 L294.2 504.403 350.308 490.08 C352.792 489.449 355.317 490.947 355.953 493.429 L364.356 526.343 472.582 498.714 472.717 499.243 363.962 527.007 355.424 493.564 C355.156 492.512 354.48 491.609 353.546 491.055 352.612 490.501 351.496 490.34 350.443 490.609 L293.806 505.068 287.561 480.603 C286.999 478.414 284.771 477.092 282.58 477.648 Z" fill="#3f3d56" fill-opacity="1" stroke="none"/>
 <path id="Trazado-47" d="M293.632 471.138 C293.632 473.249 291.921 474.96 289.81 474.96 287.699 474.96 285.988 473.249 285.988 471.138 285.988 469.027 287.699 467.315 289.81 467.315 291.921 467.315 293.632 469.027 293.632 471.138 Z" fill="#3f3d56" fill-opacity="1" stroke="none"/>
 <path id="Trazado-48" d="M360.835 483.072 C360.835 485.182 359.123 486.894 357.012 486.894 354.901 486.894 353.19 485.182 353.19 483.072 353.19 480.961 354.901 479.249 357.012 479.249 359.123 479.249 360.835 480.961 360.835 483.072 Z" fill="#3f3d56" fill-opacity="1" stroke="none"/>
 <path id="Trazado-49" d="M477.914 492.276 C477.914 494.387 476.203 496.099 474.092 496.099 471.981 496.099 470.269 494.387 470.269 492.276 470.269 490.165 471.981 488.454 474.092 488.454 476.203 488.454 477.914 490.165 477.914 492.276 Z" fill="#3f3d56" fill-opacity="1" stroke="none"/>
 <path id="Trazado-50" d="M174.379 496.811 C172.059 494.948 170.683 492.152 170.622 489.177 170.56 486.202 171.82 483.352 174.062 481.395 L160.683 448.259 178.886 451.935 188.799 482.838 C191.906 486.911 191.475 492.664 187.796 496.229 184.117 499.794 178.353 500.044 174.379 496.811 Z" fill="#ffb8b8" fill-opacity="1" stroke="none"/>
 <path id="Trazado-51" d="M174.158 482.454 C172.131 482.6 170.257 481.372 169.582 479.455 L147.924 417.737 143.296 356.163 C142.948 351.552 145.111 347.111 148.956 344.541 152.802 341.972 157.733 341.673 161.86 343.759 165.987 345.845 168.671 349.992 168.884 354.612 L171.475 410.844 188.472 473.064 C189.079 475.327 187.857 477.678 185.657 478.483 L175.354 482.197 C174.968 482.337 174.566 482.423 174.158 482.454 Z" fill="#3f3d56" fill-opacity="1" stroke="none"/>
 <path id="Trazado-52" d="M575.719 427.768 C575.315 427.591 574.939 427.356 574.603 427.072 L554.462 410.105 C553.483 409.281 552.894 408.084 552.838 406.805 552.782 405.527 553.264 404.283 554.168 403.377 L572.444 385.024 C574.031 383.418 576.554 383.217 578.375 384.552 L592.196 394.589 C593.976 395.882 594.584 398.258 593.644 400.247 L581.688 425.528 C580.629 427.764 577.987 428.756 575.719 427.768 Z" fill="#6400ff" fill-opacity="1" stroke="none"/>
 <path id="Trazado-53" d="M654.276 667.73 L642.247 671.003 623.898 626.162 641.652 621.332 Z" fill="#ffb8b8" fill-opacity="1" stroke="none"/>
 <path id="Trazado-54" d="M632.478 669.969 L655.919 663.592 655.919 663.592 659.893 678.198 659.893 678.198 622.087 688.485 622.087 688.485 622.021 688.242 C619.863 680.309 624.544 672.128 632.478 669.969 Z" fill="#2f2e41" fill-opacity="1" stroke="none"/>
 <path id="Trazado-55" d="M551.441 676.909 L538.975 676.908 533.044 628.823 551.444 628.824 Z" fill="#ffb8b8" fill-opacity="1" stroke="none"/>
 <path id="Trazado-56" d="M529.819 673.346 L554.113 673.346 554.113 673.346 554.113 688.484 554.113 688.484 514.933 688.484 514.933 688.484 514.933 688.233 C514.933 680.011 521.598 673.346 529.819 673.346 Z" fill="#2f2e41" fill-opacity="1" stroke="none"/>
 <path id="Trazado-57" d="M595.196 334.453 C595.196 348.246 584.014 359.428 570.221 359.428 556.428 359.428 545.246 348.246 545.246 334.453 545.246 320.659 556.428 309.478 570.221 309.478 584.014 309.478 595.196 320.659 595.196 334.453 Z" fill="#ffb8b8" fill-opacity="1" stroke="none"/>
 <path id="Trazado-58" d="M550.678 642.624 L533.642 642.624 C531.225 642.62 529.226 640.742 529.071 638.331 523.994 557.632 526.964 499.745 538.415 456.158 538.465 455.967 538.527 455.78 538.601 455.597 L539.513 453.316 C540.203 451.574 541.889 450.433 543.762 450.439 L578.795 450.439 C580.131 450.438 581.4 451.022 582.269 452.037 L587.027 457.589 C587.12 457.697 587.207 457.807 587.291 457.923 608.747 487.845 627.976 546.343 650.246 624.97 650.93 627.347 649.596 629.835 647.238 630.58 L628.93 636.439 C626.757 637.123 624.412 636.114 623.413 634.068 L575.903 535.527 C575.221 534.113 573.693 533.313 572.142 533.558 570.591 533.803 569.384 535.035 569.171 536.591 L555.212 638.668 C554.895 640.931 552.963 642.617 550.678 642.624 Z" fill="#2f2e41" fill-opacity="1" stroke="none"/>
 <path id="Trazado-59" d="M585.107 457.995 C585.059 457.995 585.011 457.994 584.963 457.993 L542.409 456.649 C540.148 456.586 538.275 454.875 538.008 452.629 532.613 408.963 547.408 397.266 554.019 394.264 555.142 393.757 555.919 392.698 556.065 391.474 L556.637 386.898 C556.734 386.089 557.047 385.322 557.541 384.675 567.906 371.247 582.06 366.948 589.575 365.58 590.806 365.359 592.075 365.652 593.084 366.392 594.093 367.132 594.755 368.254 594.914 369.495 L595.771 376.067 C595.859 376.693 596.109 377.286 596.497 377.787 618.114 406.047 594.031 447.774 588.984 455.851 588.146 457.184 586.682 457.994 585.107 457.995 Z" fill="#6400ff" fill-opacity="1" stroke="none"/>
 <path id="Trazado-60" d="M597.7 318.92 C595.845 313.297 594.476 307.525 593.607 301.668 593.334 298.258 594.208 294.589 596.691 292.236 601.339 287.832 609.235 289.93 614.095 294.097 621.119 300.119 624.623 309.375 625.947 318.532 627.271 327.69 626.688 337.002 627.007 346.249 627.325 355.496 628.648 365.004 633.362 372.966 638.077 380.927 646.825 387.039 656.053 386.361 659.778 386.16 663.314 384.661 666.049 382.125 668.773 379.533 670.071 375.781 669.53 372.06 674.247 380.505 671.856 391.951 664.821 398.59 657.786 405.229 646.965 407.106 637.717 404.272 628.468 401.437 620.856 394.329 616.31 385.791 611.763 377.253 610.097 367.391 610.339 357.72 610.524 350.295 611.786 342.808 610.531 335.487 609.276 328.165 604.694 320.731 597.469 319.007 Z" fill="#2f2e41" fill-opacity="1" stroke="none"/>
 <path id="Trazado-61" d="M565.253 328.546 C564.021 332.661 559.309 335.199 555.07 334.503 550.771 333.608 547.31 330.427 546.058 326.218 544.893 322.032 545.37 317.56 547.391 313.714 549.639 309.059 553.647 305.489 558.531 303.791 563.466 302.156 568.888 303.022 573.068 306.114 573.515 304.232 574.943 302.737 576.804 302.207 578.644 301.711 580.586 301.74 582.41 302.29 587.668 303.788 592.223 307.102 595.267 311.643 598.273 316.17 600.26 321.294 601.094 326.664 602.529 334.715 602 343.514 597.478 350.329 592.955 357.143 583.704 361.167 576.198 357.918 575.73 355.526 576.839 353.117 578.121 351.043 579.404 348.97 580.924 346.951 581.417 344.563 581.91 342.175 580.965 339.255 578.656 338.474 576.685 337.808 574.585 338.887 572.509 339.017 570.11 339.168 567.812 338.029 566.48 336.028 565.148 334.027 564.983 331.467 566.048 329.312 Z" fill="#2f2e41" fill-opacity="1" stroke="none"/>
 <path id="Trazado-62" d="M501.956 431.433 C502.369 431.815 502.751 432.229 503.099 432.671 L553.376 428.758 558.678 417.714 576.392 423.536 566.811 449.731 503.478 445.481 C500.917 449.104 496.38 450.764 492.085 449.65 487.79 448.536 484.632 444.881 484.154 440.469 483.675 436.058 485.977 431.811 489.933 429.802 493.89 427.794 498.677 428.443 501.956 431.433 Z" fill="#ffb8b8" fill-opacity="1" stroke="none"/>
 <path id="Trazado-63" d="M576.119 440.984 C575.695 440.863 575.291 440.682 574.918 440.446 L552.653 426.383 C551.571 425.699 550.825 424.594 550.595 423.335 550.366 422.076 550.674 420.778 551.445 419.757 L567.05 399.085 C568.403 397.278 570.876 396.735 572.861 397.809 L587.921 405.869 C589.86 406.907 590.787 409.178 590.127 411.277 L581.727 437.952 C580.983 440.311 578.501 441.654 576.119 440.984 Z" fill="#6400ff" fill-opacity="1" stroke="none"/>
</svg>
